<?xml version="1.0" standalone="no"?>
<!DOCTYPE svg PUBLIC "-//W3C//DTD SVG 20010904//EN"
 "http://www.w3.org/TR/2001/REC-SVG-20010904/DTD/svg10.dtd">
<svg version="1.0" xmlns="http://www.w3.org/2000/svg"
 width="300.000000pt" height="299.000000pt" viewBox="0 0 300.000000 299.000000"
 preserveAspectRatio="xMidYMid meet">
<metadata>
Created by potrace 1.10, written by Peter Selinger 2001-2011
</metadata>
<g transform="translate(0.000000,299.000000) scale(0.100000,-0.100000)"
fill="#000000" stroke="none">
<path d="M1529 2954 c-10 -12 -16 -64 -20 -168 -18 -388 -156 -751 -395 -1036
-202 -241 -450 -437 -753 -594 -127 -66 -136 -73 -139 -102 -4 -41 20 -64 64
-64 49 0 284 47 384 76 211 62 354 123 550 233 301 169 352 189 408 166 54
-23 61 -89 19 -172 -14 -26 -269 -265 -682 -638 -60 -54 -115 -108 -121 -120
-7 -11 -47 -123 -89 -248 -67 -195 -76 -231 -67 -252 22 -47 65 -35 239 68
248 147 261 156 285 195 73 118 856 1043 1238 1462 67 74 126 139 131 144 4 5
34 -14 67 -43 32 -28 62 -51 67 -51 5 0 16 7 25 15 15 14 16 23 4 92 -8 42
-11 79 -8 82 3 3 36 24 72 47 104 63 97 95 -28 114 l-79 12 -12 52 c-19 82
-36 116 -57 116 -24 0 -38 -16 -77 -92 l-31 -61 -79 -4 c-125 -6 -137 -35 -46
-107 l60 -46 -107 -103 c-125 -119 -222 -212 -423 -400 l-146 -137 -5 45 c-6
51 -44 107 -88 130 -42 22 -145 19 -199 -5 -24 -11 -46 -18 -48 -16 -3 2 16
29 40 60 173 212 282 554 262 821 -17 214 -97 503 -149 537 -19 13 -53 9 -67
-8z m111 -184 c43 -137 60 -254 60 -405 0 -264 -64 -470 -215 -696 -67 -98
-76 -127 -50 -149 12 -10 26 -9 73 4 32 9 80 16 106 16 41 0 53 -5 81 -33 18
-18 38 -51 44 -73 7 -26 20 -45 36 -54 14 -7 25 -17 25 -20 0 -11 -141 -142
-147 -137 -2 3 8 24 23 47 35 53 45 146 20 185 -27 41 -83 63 -138 54 -44 -7
-220 -92 -317 -154 -62 -39 -249 -131 -346 -170 -174 -70 -476 -147 -585 -149
-56 -1 -43 25 30 62 506 255 891 636 1065 1050 92 221 132 395 142 612 3 74
10 141 16 148 16 20 43 -29 77 -138z m999 -594 c13 -59 22 -66 80 -66 56 0 56
-10 0 -43 -51 -29 -51 -29 -46 -70 3 -23 9 -53 13 -67 6 -22 1 -20 -38 18 -24
23 -47 42 -50 42 -4 0 -30 -14 -59 -30 -28 -17 -53 -29 -55 -27 -3 2 7 24 21
48 13 24 25 51 25 59 0 8 -20 29 -45 45 -24 17 -45 32 -45 35 0 3 29 4 63 2
l64 -4 24 56 c13 31 27 56 30 56 3 0 11 -24 18 -54z m-130 -284 c3 -1 -8 -15
-23 -30 -24 -23 -27 -24 -22 -7 4 14 -2 29 -18 46 -18 20 -22 29 -13 38 8 8
19 4 41 -17 17 -15 33 -28 35 -30z m-69 -14 c0 -11 -602 -615 -1167 -1172
l-231 -228 -36 25 -36 24 92 84 c221 201 756 702 1102 1032 142 136 263 247
268 247 4 0 8 -5 8 -12z m-241 -336 c-404 -471 -518 -604 -591 -692 -197 -238
-298 -361 -367 -447 l-73 -91 -59 58 c-32 32 -59 60 -59 63 0 2 46 49 102 103
394 383 526 511 778 759 156 154 286 284 288 288 2 5 6 6 9 3 3 -3 -10 -23
-28 -44z m-986 -734 c-43 -42 -103 -97 -133 -124 -77 -67 -129 -125 -136 -152
-5 -17 -13 -22 -34 -20 -24 2 -27 5 -17 19 7 9 28 29 47 45 19 16 64 57 100
90 36 34 84 78 108 98 24 19 64 56 90 80 26 25 48 43 50 42 1 -2 -32 -37 -75
-78z m-197 -409 c94 -73 120 -99 95 -99 -4 0 -56 -29 -114 -64 -90 -54 -108
-61 -119 -49 -6 8 -24 21 -38 28 l-27 14 45 126 c25 69 47 125 50 125 2 0 51
-36 108 -81z m-224 -192 c7 -7 30 -25 51 -41 20 -16 37 -32 37 -37 0 -11 -132
-89 -142 -83 -13 9 -9 47 13 112 11 34 22 62 24 62 2 0 10 -6 17 -13z"/>
<path d="M1581 2584 c-12 -15 -21 -33 -21 -41 0 -23 -58 -252 -77 -303 -134
-367 -353 -648 -732 -938 -110 -84 -126 -107 -95 -133 33 -28 225 36 410 136
73 39 110 70 204 164 194 194 295 364 359 601 47 176 54 416 15 496 -24 48
-37 52 -63 18z m45 -134 c14 -285 -60 -540 -224 -769 -127 -178 -250 -290
-401 -365 -86 -44 -340 -141 -347 -133 -2 2 28 26 68 52 256 169 527 456 667
705 100 176 191 440 207 598 4 35 11 59 15 55 5 -5 11 -69 15 -143z"/>
</g>
</svg>
